<svg xmlns="http://www.w3.org/2000/svg" width="1200" height="1500" viewBox="0 0 1200 1500">
<defs>
<marker id="arrow" markerWidth="8" markerHeight="8" refX="7" refY="4" orient="auto" markerUnits="strokeWidth">
<path d="M 0 0 L 8 4 L 0 8 z" fill="#1f2937" />
</marker>
</defs>
<rect x="0" y="0" width="1200" height="1500" fill="#f8fafc" />
<text x="90" y="50" font-family="Arial, Helvetica, sans-serif" font-size="28" fill="#0f172a">Hourglass beta=5 deg extremal</text>
<line x1="316.67" y1="1284.39" x2="434.03" y2="1088.13" stroke="#111827" stroke-width="4.0" stroke-linecap="round" />
<line x1="883.33" y1="1284.39" x2="765.97" y2="1088.13" stroke="#111827" stroke-width="4.0" stroke-linecap="round" />
<line x1="434.03" y1="1088.13" x2="434.03" y2="973.17" stroke="#2563eb" stroke-width="3.0" stroke-linecap="round" />
<line x1="765.97" y1="1088.13" x2="765.97" y2="973.17" stroke="#2563eb" stroke-width="3.0" stroke-linecap="round" />
<line x1="434.03" y1="973.17" x2="316.67" y2="776.91" stroke="#374151" stroke-width="4.0" stroke-linecap="round" />
<line x1="765.97" y1="973.17" x2="883.33" y2="776.91" stroke="#374151" stroke-width="4.0" stroke-linecap="round" />
<line x1="316.67" y1="776.91" x2="316.67" y2="188.13" stroke="#0f766e" stroke-width="3.0" stroke-linecap="round" />
<line x1="883.33" y1="776.91" x2="883.33" y2="188.13" stroke="#0f766e" stroke-width="3.0" stroke-linecap="round" />
<line x1="316.67" y1="1284.39" x2="883.33" y2="1284.39" stroke="#94a3b8" stroke-width="1.5" stroke-linecap="round" stroke-dasharray="6 5" />
<text x="90" y="82" font-family="Arial, Helvetica, sans-serif" font-size="16" fill="#334155">incoming sunlight (+z)</text>
<text x="600.00" y="1072.43" font-family="Arial, Helvetica, sans-serif" font-size="14" text-anchor="middle" fill="#0f172a">open throat</text>
<text x="600.00" y="761.21" font-family="Arial, Helvetica, sans-serif" font-size="14" text-anchor="middle" fill="#0f172a">rear mirror span</text>
<polyline points="333.95,1421.25 316.67,1284.39 765.97,1023.24 316.67,762.10 765.97,1081.58 337.32,811.45 344.80,701.66" fill="none" stroke="#2563eb" stroke-width="2.1" stroke-linecap="round" stroke-linejoin="round" marker-end="url(#arrow)" />
<polyline points="299.38,1421.25 316.67,1284.39 836.45,855.31 883.33,484.12 434.03,1069.17 871.55,796.62 863.15,686.87" fill="none" stroke="#2563eb" stroke-width="2.1" stroke-linecap="round" stroke-linejoin="round" marker-end="url(#arrow)" />
<polyline points="451.31,1224.99 434.03,1088.13 837.44,853.66 823.61,744.17" fill="none" stroke="#2563eb" stroke-width="2.1" stroke-linecap="round" stroke-linejoin="round" marker-end="url(#arrow)" />
<polyline points="416.74,1224.99 434.03,1088.13 883.33,717.23 434.03,1079.58 864.11,809.05 856.48,699.27" fill="none" stroke="#2563eb" stroke-width="2.1" stroke-linecap="round" stroke-linejoin="round" marker-end="url(#arrow)" />
<polyline points="900.62,1421.25 883.33,1284.39 363.55,855.31 316.67,484.12 765.97,1069.17 328.45,796.62 336.85,686.87" fill="none" stroke="#2563eb" stroke-width="2.1" stroke-linecap="round" stroke-linejoin="round" marker-end="url(#arrow)" />
<polyline points="866.05,1421.25 883.33,1284.39 434.03,1023.24 883.33,762.10 434.03,1081.58 862.68,811.45 855.20,701.66" fill="none" stroke="#2563eb" stroke-width="2.1" stroke-linecap="round" stroke-linejoin="round" marker-end="url(#arrow)" />
<polyline points="783.26,1224.99 765.97,1088.13 316.67,717.23 765.97,1079.58 335.89,809.05 343.52,699.27" fill="none" stroke="#2563eb" stroke-width="2.1" stroke-linecap="round" stroke-linejoin="round" marker-end="url(#arrow)" />
<polyline points="748.69,1224.99 765.97,1088.13 362.56,853.66 376.39,744.17" fill="none" stroke="#2563eb" stroke-width="2.1" stroke-linecap="round" stroke-linejoin="round" marker-end="url(#arrow)" />
<line x1="600.00" y1="1088.13" x2="600.00" y2="975.23" stroke="#2563eb" stroke-width="5.0" stroke-linecap="round" stroke-dasharray="4 4" />
<text x="600.00" y="963.45" font-family="Arial, Helvetica, sans-serif" font-size="14" text-anchor="middle" fill="#2563eb">used throat hit interval</text>
<line x1="883.33" y1="775.38" x2="883.33" y2="249.44" stroke="#0891b2" stroke-width="5.0" stroke-linecap="round" stroke-dasharray="4 4" />
<text x="883.33" y="237.67" font-family="Arial, Helvetica, sans-serif" font-size="14" text-anchor="middle" fill="#0891b2">used wall hit interval</text>
<text x="90" y="126" font-family="Arial, Helvetica, sans-serif" font-size="14" fill="#0f172a">facet angle range: -59.45° to 59.45°</text>
<rect x="830" y="90" width="285" height="258" rx="12" fill="#ffffff" stroke="#cbd5e1" stroke-width="1.2" />
<text x="844" y="116" font-family="Arial, Helvetica, sans-serif" font-size="13" fill="#0f172a">beta = 5.000 deg</text>
<text x="844" y="134" font-family="Arial, Helvetica, sans-serif" font-size="13" fill="#0f172a">alpha = 22.500 deg</text>
<text x="844" y="152" font-family="Arial, Helvetica, sans-serif" font-size="13" fill="#0f172a">front span h = 0.500</text>
<text x="844" y="170" font-family="Arial, Helvetica, sans-serif" font-size="13" fill="#0f172a">throat half-width q = 0.293</text>
<text x="844" y="188" font-family="Arial, Helvetica, sans-serif" font-size="13" fill="#0f172a">rear start z = 0.793</text>
<text x="844" y="206" font-family="Arial, Helvetica, sans-serif" font-size="13" fill="#0f172a">rays forward = 8/8</text>
<text x="844" y="224" font-family="Arial, Helvetica, sans-serif" font-size="13" fill="#0f172a">rays within cone = 8/8</text>
<text x="844" y="242" font-family="Arial, Helvetica, sans-serif" font-size="13" fill="#0f172a">max cone excess = 0.0000 deg</text>
<text x="844" y="260" font-family="Arial, Helvetica, sans-serif" font-size="13" fill="#0f172a">mean bounces = 4.00</text>
<text x="844" y="278" font-family="Arial, Helvetica, sans-serif" font-size="13" fill="#0f172a">max bounces = 5</text>
<text x="844" y="296" font-family="Arial, Helvetica, sans-serif" font-size="13" fill="#0f172a">throat use = 0.500 to 0.788</text>
<text x="844" y="314" font-family="Arial, Helvetica, sans-serif" font-size="13" fill="#0f172a">wall use = 1.297 to 2.637</text>
<text x="844" y="332" font-family="Arial, Helvetica, sans-serif" font-size="13" fill="#0f172a">facet specs = 44</text>
</svg>